<svg id="Component_48_1" data-name="Component 48 – 1" xmlns="http://www.w3.org/2000/svg" width="35" height="35" viewBox="0 0 35 35">
  <circle id="Ellipse_332" data-name="Ellipse 332" cx="17.5" cy="17.5" r="17.5" fill="none"/>
  <path id="Icon_awesome-edit" data-name="Icon awesome-edit" d="M12.516,2.59l2.8,2.8a.3.3,0,0,1,0,.429L8.53,12.613l-2.885.32a.6.6,0,0,1-.668-.668L5.3,9.38,12.087,2.59A.3.3,0,0,1,12.516,2.59Zm5.036-.712L16.035.361a1.216,1.216,0,0,0-1.716,0l-1.1,1.1a.3.3,0,0,0,0,.429l2.8,2.8a.3.3,0,0,0,.429,0l1.1-1.1a1.216,1.216,0,0,0,0-1.716Zm-5.614,8.888v3.165H1.99V3.983H9.133A.382.382,0,0,0,9.4,3.874l1.243-1.243a.373.373,0,0,0-.264-.637H1.492A1.493,1.493,0,0,0,0,3.486V14.428a1.493,1.493,0,0,0,1.492,1.492H12.435a1.493,1.493,0,0,0,1.492-1.492V9.523a.374.374,0,0,0-.637-.264L12.046,10.5A.382.382,0,0,0,11.938,10.766Z" transform="translate(8.472 9.523)" fill="#c3c3c3"/>
</svg>
