<svg xmlns="http://www.w3.org/2000/svg" width="55" height="55" viewBox="0 0 55 55">
  <g id="Group_5182" data-name="Group 5182" transform="translate(-428 -205)">
    <circle id="Ellipse_289" data-name="Ellipse 289" cx="27.5" cy="27.5" r="27.5" transform="translate(428 205)" fill="#f3f3f3"/>
    <g id="user" transform="translate(416 734.876)">
      <path id="Path_10505" data-name="Path 10505" d="M125.178-511.821a5.052,5.052,0,0,0-4.051,4.08,6.886,6.886,0,0,0,0,1.7,5.031,5.031,0,0,0,4.084,4.084,6.886,6.886,0,0,0,1.7,0A5.031,5.031,0,0,0,131-506.041a6.886,6.886,0,0,0,0-1.7,5.031,5.031,0,0,0-4.084-4.084A7.157,7.157,0,0,0,125.178-511.821Z" transform="translate(-86.746)" fill="#a0a0a0"/>
      <path id="Path_10506" data-name="Path 10506" d="M37.154-211.621a7.272,7.272,0,0,0-5.089,3.389A7.176,7.176,0,0,0,31-204.61c0,.455.037.558.244.695.1.067.333.07,8.072.07s7.968,0,8.072-.07c.207-.137.244-.24.244-.7a7.235,7.235,0,0,0-2.243-5.067,7.154,7.154,0,0,0-3.618-1.892,11.6,11.6,0,0,0-2.325-.089A18.755,18.755,0,0,0,37.154-211.621Z" transform="translate(0 -289.113)" fill="#a0a0a0"/>
    </g>
  </g>
</svg>
