<svg id="Group_4968" data-name="Group 4968" xmlns="http://www.w3.org/2000/svg" width="20.027" height="22" viewBox="0 0 20.027 22">
  <g id="Icon_ionic-ios-notifications-outline" data-name="Icon ionic-ios-notifications-outline" transform="translate(0 0)">
    <path id="Path_23" data-name="Path 23" d="M19.134,28.336a.712.712,0,0,0-.7.561,1.378,1.378,0,0,1-.275.6,1.039,1.039,0,0,1-.885.324,1.057,1.057,0,0,1-.885-.324,1.378,1.378,0,0,1-.275-.6.712.712,0,0,0-.7-.561h0a.717.717,0,0,0-.7.874,2.457,2.457,0,0,0,2.557,2.04,2.452,2.452,0,0,0,2.557-2.04.72.72,0,0,0-.7-.874Z" transform="translate(-8.503 -9.25)"/>
    <path id="Path_24" data-name="Path 24" d="M24.131,20.223c-.847-1.116-2.513-1.771-2.513-6.769,0-5.13-2.265-7.192-4.377-7.687-.2-.049-.341-.115-.341-.324V5.283a1.349,1.349,0,0,0-1.32-1.353h-.033a1.349,1.349,0,0,0-1.32,1.353v.159c0,.2-.143.275-.341.324-2.117.5-4.377,2.557-4.377,7.687,0,5-1.666,5.647-2.513,6.769a1.091,1.091,0,0,0,.874,1.749h15.4A1.092,1.092,0,0,0,24.131,20.223Zm-2.144.319H9.164a.241.241,0,0,1-.181-.4A6.661,6.661,0,0,0,10.137,18.3a12.461,12.461,0,0,0,.786-4.85,8.433,8.433,0,0,1,1.149-4.773A3.528,3.528,0,0,1,14.2,7.164a1.927,1.927,0,0,0,1.023-.577.435.435,0,0,1,.654-.011,1.992,1.992,0,0,0,1.034.588,3.528,3.528,0,0,1,2.128,1.518,8.433,8.433,0,0,1,1.149,4.773,12.461,12.461,0,0,0,.786,4.85,6.737,6.737,0,0,0,1.182,1.864A.227.227,0,0,1,21.987,20.542Z" transform="translate(-6.775 -3.93)"/>
  </g>
  <g id="Ellipse_37" data-name="Ellipse 37" transform="translate(10.027 1)" fill="#d3161c" stroke="#fff" strokeWidth="1">
    <circle cx="5" cy="5" r="5" stroke="none"/>
    <circle cx="5" cy="5" r="4.5" fill="none"/>
  </g>
</svg>
