<svg id="Component_52_1" data-name="Component 52 – 1" xmlns="http://www.w3.org/2000/svg" width="35" height="35" viewBox="0 0 35 35">
  <circle id="Ellipse_334" data-name="Ellipse 334" cx="17.5" cy="17.5" r="17.5" fill="#fff"/>
  <g id="_5740101_buy_discount_ecommerce_sale_shop_icon" data-name="5740101_buy_discount_ecommerce_sale_shop_icon" transform="translate(5 5.952)">
    <path id="Path_8132" data-name="Path 8132" d="M22.41,10.59,20.36,8.54V5.63a2,2,0,0,0-2-2h-2.9l-2.05-2a2,2,0,0,0-2.82,0L8.54,3.64H5.63a2,2,0,0,0-2,2v2.9l-2,2.05a1.946,1.946,0,0,0-.05,2.82l2.06,2.05v2.91a2,2,0,0,0,2,2h2.9l2.05,2.05a2,2,0,0,0,2.82,0l2.05-2.06h2.91a2,2,0,0,0,2-2v-2.9l2.05-2.05a2,2,0,0,0,0-2.82Zm-4.05,4.05v3.72H14.64L12,21,9.36,18.36H5.64V14.64L3,12,5.64,9.36V5.64H9.36L12,3l2.64,2.64h3.72V9.36L21,12Z" fill="#c3c3c3"/>
    <path id="Path_8133" data-name="Path 8133" d="M14.24,7.85l-6,7a1,1,0,1,0,1.52,1.3l6-7a1,1,0,1,0-1.52-1.3Z" fill="#c3c3c3"/>
    <path id="Path_8134" data-name="Path 8134" d="M10.9,10.45a1.5,1.5,0,1,0-1.85-1A1.5,1.5,0,0,0,10.9,10.45Z" fill="#c3c3c3"/>
    <path id="Path_8135" data-name="Path 8135" d="M13.1,13.55a1.5,1.5,0,1,0,1.85,1,1.5,1.5,0,0,0-1.85-1Z" fill="#c3c3c3"/>
  </g>
</svg>
