<svg id="baseline-phone-24px" xmlns="http://www.w3.org/2000/svg" width="16.195" height="16.195" viewBox="0 0 16.195 16.195">
  <path id="Path_867" data-name="Path 867" d="M0,0H16.2V16.2H0Z" fill="none"/>
  <path id="Path_868" data-name="Path 868" d="M5.443,8.257A10.222,10.222,0,0,0,9.89,12.7l1.485-1.485a.671.671,0,0,1,.688-.162,7.7,7.7,0,0,0,2.409.385.677.677,0,0,1,.675.675v2.355a.677.677,0,0,1-.675.675A11.471,11.471,0,0,1,3,3.675.677.677,0,0,1,3.675,3H6.037a.677.677,0,0,1,.675.675A7.666,7.666,0,0,0,7.1,6.084a.677.677,0,0,1-.169.688Z" transform="translate(-0.976 -0.976)" fill="#d4af37"/>
</svg>
