<svg xmlns="http://www.w3.org/2000/svg" width="33.8" height="26" viewBox="0 0 33.8 26">
  <g id="_211634_camera_icon_1_" data-name="211634_camera_icon (1)" transform="translate(-48 -96)">
    <path id="Path_8097" data-name="Path 8097" d="M79.07,100.144H73.586L70.3,96.829s-.016-.016-.024-.016l-.016-.016h0a2.658,2.658,0,0,0-1.893-.8H61.544a2.687,2.687,0,0,0-2,.886v.008l-3.209,3.25H50.73a2.7,2.7,0,0,0-2.73,2.7v16.421A2.732,2.732,0,0,0,50.73,122H79.07a2.738,2.738,0,0,0,2.73-2.738V102.841A2.7,2.7,0,0,0,79.07,100.144ZM64.9,117.9a7.524,7.524,0,1,1,7.508-7.524A7.53,7.53,0,0,1,64.9,117.9Zm13.658-13.406a1.146,1.146,0,1,1,1.137-1.146A1.143,1.143,0,0,1,78.558,104.491Z" fill="#e4e4e4"/>
    <path id="Path_8098" data-name="Path 8098" d="M191.871,202.9a5.688,5.688,0,1,0,5.671,5.688A5.675,5.675,0,0,0,191.871,202.9Z" transform="translate(-126.971 -98.214)" fill="#e4e4e4"/>
  </g>
</svg>
