<svg id="_103177_see_watch_view_eye_icon_1_" data-name="103177_see_watch_view_eye_icon (1)" xmlns="http://www.w3.org/2000/svg" width="14.755" height="9.83" viewBox="0 0 14.755 9.83">
  <g id="Group_5000" data-name="Group 5000">
    <path id="Path_8127" data-name="Path 8127" d="M7.366,4C2.491,4-.012,8.915-.012,8.915A8.076,8.076,0,0,0,7.366,13.83c4.971,0,7.377-4.9,7.377-4.9S12.317,4,7.366,4Zm.011,7.987A3,3,0,0,1,4.306,8.915,3,3,0,0,1,7.377,5.843a3,3,0,0,1,3.071,3.072A3,3,0,0,1,7.377,11.987Zm0-4.915A1.843,1.843,0,1,0,9.219,8.915,1.864,1.864,0,0,0,7.377,7.072Z" 
    transform="translate(0.012 -4)" fill="#b3b3b3"/>
  </g>
</svg>
