<svg id="Component_49_1" data-name="Component 49 – 1" xmlns="http://www.w3.org/2000/svg" width="35" height="35" viewBox="0 0 35 35">
  <circle id="Ellipse_333" data-name="Ellipse 333" cx="17.5" cy="17.5" r="17.5" fill="#fff"/>
  <g id="_103177_see_watch_view_eye_icon_1_" data-name="103177_see_watch_view_eye_icon (1)" transform="translate(7 11)">
    <g id="Group_5000" data-name="Group 5000">
      <path id="Path_8127" data-name="Path 8127" d="M10,4C3.384,4-.012,10.67-.012,10.67A10.96,10.96,0,0,0,10,17.34c6.745,0,10.011-6.644,10.011-6.644S16.719,4,10,4Zm.015,10.838A4.07,4.07,0,0,1,5.847,10.67,4.07,4.07,0,0,1,10.015,6.5a4.07,4.07,0,0,1,4.167,4.169A4.07,4.07,0,0,1,10.015,14.838Zm0-6.67a2.5,2.5,0,1,0,2.5,2.5A2.529,2.529,0,0,0,10.015,8.169Z" transform="translate(0.012 -4)" fill="#b3b3b3"/>
    </g>
  </g>
</svg>
